<?xml version="1.0" encoding="UTF-8" standalone="no"?>
<svg
   xmlns:dc="http://purl.org/dc/elements/1.1/"
   xmlns:cc="http://creativecommons.org/ns#"
   xmlns:rdf="http://www.w3.org/1999/02/22-rdf-syntax-ns#"
   xmlns:svg="http://www.w3.org/2000/svg"
   xmlns="http://www.w3.org/2000/svg"
   xmlns:xlink="http://www.w3.org/1999/xlink"
   xmlns:sodipodi="http://sodipodi.sourceforge.net/DTD/sodipodi-0.dtd"
   xmlns:inkscape="http://www.inkscape.org/namespaces/inkscape"
   width="1542.3271"
   height="467.44189"
   id="svg2169"
   version="1.0"
   viewBox="0 0 1079.629 327.20932"
   sodipodi:docname="pyDSA_logo_python_text.svg"
   inkscape:version="0.92.4 5da689c313, 2019-01-14">
  <sodipodi:namedview
     pagecolor="#ffffff"
     bordercolor="#666666"
     borderopacity="1"
     objecttolerance="10"
     gridtolerance="10"
     guidetolerance="10"
     inkscape:pageopacity="0"
     inkscape:pageshadow="2"
     inkscape:window-width="1920"
     inkscape:window-height="1035"
     id="namedview1444"
     showgrid="false"
     fit-margin-top="0"
     fit-margin-left="0"
     fit-margin-right="0"
     fit-margin-bottom="0"
     inkscape:zoom="0.39725767"
     inkscape:cx="1058.9694"
     inkscape:cy="-241.28901"
     inkscape:window-x="0"
     inkscape:window-y="22"
     inkscape:window-maximized="0"
     inkscape:current-layer="svg2169" />
  <defs
     id="defs2171">
    <linearGradient
       id="linearGradient11301">
      <stop
         id="stop11303"
         offset="0"
         style="stop-color:#ffe052;stop-opacity:1" />
      <stop
         id="stop11305"
         offset="1"
         style="stop-color:#ffc331;stop-opacity:1" />
    </linearGradient>
    <linearGradient
       id="linearGradient9515">
      <stop
         id="stop9517"
         offset="0"
         style="stop-color:#387eb8;stop-opacity:1" />
      <stop
         id="stop9519"
         offset="1"
         style="stop-color:#366994;stop-opacity:1" />
    </linearGradient>
    <linearGradient
       xlink:href="#linearGradient9515"
       id="linearGradient1002"
       x1="261.18665"
       y1="154.95264"
       x2="404.93277"
       y2="324.54715"
       gradientUnits="userSpaceOnUse" />
    <filter
       style="color-interpolation-filters:sRGB"
       id="filter1701">
      <feGaussianBlur
         stdDeviation="10 10"
         result="blur"
         id="feGaussianBlur1699" />
    </filter>
    <linearGradient
       xlink:href="#linearGradient9515"
       id="linearGradient1814"
       x1="-1331.3571"
       y1="783.59027"
       x2="-1143.308"
       y2="974.50909"
       gradientUnits="userSpaceOnUse" />
    <filter
       style="color-interpolation-filters:sRGB"
       id="filter1854">
      <feGaussianBlur
         stdDeviation="3"
         result="blur"
         id="feGaussianBlur1852" />
    </filter>
    <linearGradient
       xlink:href="#linearGradient9515"
       id="linearGradient2119"
       gradientUnits="userSpaceOnUse"
       gradientTransform="matrix(1.7553519,0,0,1.7553519,-1112.6072,609.38014)"
       x1="89.136749"
       y1="111.92053"
       x2="147.77737"
       y2="168.1012" />
    <linearGradient
       xlink:href="#linearGradient9515"
       id="linearGradient6188"
       gradientUnits="userSpaceOnUse"
       x1="-1331.3571"
       y1="783.59027"
       x2="-1143.308"
       y2="974.50909"
       gradientTransform="translate(427.32476,-845.54607)" />
    <linearGradient
       xlink:href="#linearGradient9515"
       id="linearGradient6190"
       gradientUnits="userSpaceOnUse"
       gradientTransform="matrix(1.7553519,0,0,1.7553519,-1112.6072,609.38014)"
       x1="55.549179"
       y1="77.070274"
       x2="110.14919"
       y2="131.85291" />
    <linearGradient
       xlink:href="#linearGradient11301"
       id="linearGradient6192"
       gradientUnits="userSpaceOnUse"
       gradientTransform="matrix(1.7553519,0,0,1.7553519,-1112.6072,609.38014)"
       x1="89.136749"
       y1="111.92053"
       x2="147.77737"
       y2="168.1012" />
    <linearGradient
       inkscape:collect="always"
       id="linearGradient1277">
      <stop
         style="stop-color:#2d2d2d;stop-opacity:1;"
         offset="0"
         id="stop1273" />
      <stop
         style="stop-color:#3c3c3c;stop-opacity:1"
         offset="1"
         id="stop1275" />
    </linearGradient>
    <linearGradient
       inkscape:collect="always"
       id="linearGradient4700">
      <stop
         style="stop-color:#2d2d2d;stop-opacity:1;"
         offset="0"
         id="stop4696" />
      <stop
         style="stop-color:#7a7a7a;stop-opacity:1"
         offset="1"
         id="stop4698" />
    </linearGradient>
    <clipPath
       clipPathUnits="userSpaceOnUse"
       id="clipPath4706">
      <circle
         style="opacity:1;fill:#2d2d2d;fill-opacity:1;stroke:none;stroke-width:7;stroke-linecap:round;stroke-linejoin:bevel;stroke-miterlimit:4;stroke-dasharray:none;stroke-dashoffset:0;stroke-opacity:0.96078431;paint-order:normal"
         id="circle4708"
         cx="-1347.717"
         cy="1150.9246"
         r="162.99998" />
    </clipPath>
    <clipPath
       clipPathUnits="userSpaceOnUse"
       id="clipPath4718">
      <circle
         style="opacity:1;fill:#2d2d2d;fill-opacity:1;stroke:none;stroke-width:13.41818523;stroke-linecap:round;stroke-linejoin:bevel;stroke-miterlimit:4;stroke-dasharray:none;stroke-dashoffset:0;stroke-opacity:0.96078431;paint-order:normal"
         id="circle4720"
         cx="-821.31091"
         cy="500.02417"
         r="312.452" />
    </clipPath>
    <clipPath
       clipPathUnits="userSpaceOnUse"
       id="clipPath4712">
      <circle
         style="opacity:1;fill:none;fill-opacity:1;stroke:#ffffff;stroke-width:13.41818523;stroke-linecap:round;stroke-linejoin:bevel;stroke-miterlimit:4;stroke-dasharray:none;stroke-dashoffset:0;stroke-opacity:1;paint-order:normal"
         id="circle4714"
         cx="-821.31091"
         cy="500.02417"
         r="312.452" />
    </clipPath>
    <linearGradient
       inkscape:collect="always"
       xlink:href="#linearGradient4700"
       id="linearGradient1271-4"
       gradientUnits="userSpaceOnUse"
       x1="-1345.7473"
       y1="1354.4723"
       x2="-1345.7473"
       y2="1174.0215" />
    <linearGradient
       inkscape:collect="always"
       xlink:href="#linearGradient4700"
       id="linearGradient2267"
       gradientUnits="userSpaceOnUse"
       x1="-1345.7473"
       y1="1354.4723"
       x2="-1345.7473"
       y2="1174.0215" />
    <linearGradient
       inkscape:collect="always"
       xlink:href="#linearGradient1277"
       id="linearGradient1172"
       gradientUnits="userSpaceOnUse"
       gradientTransform="translate(1670.062,-621.9533)"
       x1="-1456.4288"
       y1="565.44012"
       x2="-1283.1995"
       y2="789.59302" />
    <linearGradient
       inkscape:collect="always"
       xlink:href="#linearGradient4700"
       id="linearGradient1644"
       gradientUnits="userSpaceOnUse"
       gradientTransform="translate(0,-422.12194)"
       x1="-1345.7473"
       y1="1354.4723"
       x2="-1345.7473"
       y2="1174.0215" />
    <clipPath
       clipPathUnits="userSpaceOnUse"
       id="clipPath1223">
      <circle
         style="opacity:1;fill:#2d2d2d;fill-opacity:1;stroke:none;stroke-width:7;stroke-linecap:round;stroke-linejoin:bevel;stroke-miterlimit:4;stroke-dasharray:none;stroke-dashoffset:0;stroke-opacity:0.96078431;paint-order:normal"
         id="circle1225"
         cx="-1347.5403"
         cy="695.86023"
         r="162.99998" />
    </clipPath>
    <clipPath
       clipPathUnits="userSpaceOnUse"
       id="clipPath4718-1">
      <circle
         style="opacity:1;fill:#2d2d2d;fill-opacity:1;stroke:none;stroke-width:13.41818523;stroke-linecap:round;stroke-linejoin:bevel;stroke-miterlimit:4;stroke-dasharray:none;stroke-dashoffset:0;stroke-opacity:0.96078431;paint-order:normal"
         id="circle4720-3"
         cx="-821.31091"
         cy="500.02417"
         r="312.452" />
    </clipPath>
    <clipPath
       clipPathUnits="userSpaceOnUse"
       id="clipPath4712-1">
      <circle
         style="opacity:1;fill:none;fill-opacity:1;stroke:#ffffff;stroke-width:13.41818523;stroke-linecap:round;stroke-linejoin:bevel;stroke-miterlimit:4;stroke-dasharray:none;stroke-dashoffset:0;stroke-opacity:1;paint-order:normal"
         id="circle4714-1"
         cx="-821.31091"
         cy="500.02417"
         r="312.452" />
    </clipPath>
    <linearGradient
       inkscape:collect="always"
       xlink:href="#linearGradient9515"
       id="linearGradient1168"
       gradientUnits="userSpaceOnUse"
       gradientTransform="matrix(4.2836665,0,0,4.2836665,-703.12433,-462.06089)"
       x1="55.549179"
       y1="77.070274"
       x2="110.14919"
       y2="131.85291" />
    <linearGradient
       inkscape:collect="always"
       xlink:href="#linearGradient11301"
       id="linearGradient1170"
       gradientUnits="userSpaceOnUse"
       gradientTransform="matrix(4.2836665,0,0,4.2836665,-703.12433,-462.06089)"
       x1="89.136749"
       y1="111.92053"
       x2="147.77737"
       y2="168.1012" />
    <clipPath
       clipPathUnits="userSpaceOnUse"
       id="clipPath888">
      <text
         xml:space="preserve"
         style="font-style:normal;font-variant:normal;font-weight:normal;font-stretch:normal;font-size:194.75730896px;line-height:73.03400421px;font-family:'dejavu serif';-inkscape-font-specification:'dejavu serif';font-variant-ligatures:normal;font-variant-position:normal;font-variant-caps:normal;font-variant-numeric:normal;font-variant-alternates:normal;font-feature-settings:normal;text-indent:0;text-align:start;text-decoration:none;text-decoration-line:none;text-decoration-style:solid;text-decoration-color:#000000;letter-spacing:0px;word-spacing:0px;text-transform:none;writing-mode:lr-tb;direction:ltr;text-orientation:mixed;dominant-baseline:auto;baseline-shift:baseline;text-anchor:start;white-space:normal;shape-padding:0;opacity:1;vector-effect:none;fill:#393939;fill-opacity:1;stroke:#08131b;stroke-width:0.69999993px;stroke-linecap:butt;stroke-linejoin:miter;stroke-miterlimit:4;stroke-dasharray:none;stroke-dashoffset:0;stroke-opacity:1"
         x="297.56717"
         y="-197.69263"
         id="text892"><tspan
           id="tspan890"
           x="297.56717"
           y="-197.69263"
           style="font-style:normal;font-variant:normal;font-weight:normal;font-stretch:normal;font-family:'deja vu serif';-inkscape-font-specification:'deja vu serif';fill:#393939;fill-opacity:1;stroke:#08131b;stroke-width:0.69999993px;stroke-opacity:1">PyDSA</tspan></text>
    </clipPath>
  </defs>
  <metadata
     id="metadata2174">
    <rdf:RDF>
      <cc:Work
         rdf:about="">
        <dc:format>image/svg+xml</dc:format>
        <dc:type
           rdf:resource="http://purl.org/dc/dcmitype/StillImage" />
        <dc:title></dc:title>
      </cc:Work>
    </rdf:RDF>
  </metadata>
  <g
     id="g2253"
     transform="translate(108.49444,413.20955)"
     clip-path="url(#clipPath888)">
    <rect
       clip-path="none"
       y="-352.06485"
       x="268.29727"
       height="180.21852"
       width="743.18518"
       id="rect2227"
       style="opacity:1;fill:#303030;fill-opacity:1;stroke:none;stroke-width:21;stroke-linecap:round;stroke-linejoin:bevel;stroke-miterlimit:4;stroke-dasharray:none;stroke-dashoffset:0;stroke-opacity:0.96078431;paint-order:normal"
       mask="none" />
    <rect
       mask="none"
       transform="translate(1780.7946,-1367.851)"
       style="opacity:1;fill:url(#linearGradient2267);fill-opacity:1;stroke:none;stroke-width:21;stroke-linecap:round;stroke-linejoin:bevel;stroke-miterlimit:4;stroke-dasharray:none;stroke-dashoffset:0;stroke-opacity:0.96078431;paint-order:normal"
       id="rect1251-6"
       width="743.18518"
       height="155.29895"
       x="-1512.4973"
       y="1175.2715"
       clip-path="none" />
    <path
       style="fill:none;stroke:#ffffff;stroke-width:7;stroke-linecap:butt;stroke-linejoin:miter;stroke-miterlimit:4;stroke-dasharray:none;stroke-opacity:1"
       d="M -1112.0324,548.58223 H 73.151978"
       id="path1255-2"
       inkscape:connector-curvature="0"
       sodipodi:nodetypes="cc"
       clip-path="none"
       transform="matrix(0.64169852,0,0,0.64169852,963.61164,-544.03921)" />
    <rect
       style="opacity:1;vector-effect:none;fill:#303030;fill-opacity:0.33333333;stroke:none;stroke-width:4.9000001;stroke-linecap:butt;stroke-linejoin:miter;stroke-miterlimit:4;stroke-dasharray:none;stroke-dashoffset:0;stroke-opacity:1;paint-order:markers fill stroke"
       id="rect2275"
       width="813.62439"
       height="351.36609"
       x="245.45795"
       y="-365.11166" />
  </g>
  <g
     id="g905"
     style="font-style:normal;font-variant:normal;font-weight:normal;font-stretch:normal;font-size:194.75730896px;line-height:73.03400421px;font-family:'dejavu serif';-inkscape-font-specification:'dejavu serif';font-variant-ligatures:normal;font-variant-position:normal;font-variant-caps:normal;font-variant-numeric:normal;font-variant-alternates:normal;font-feature-settings:normal;text-indent:0;text-align:start;text-decoration:none;text-decoration-line:none;text-decoration-style:solid;text-decoration-color:#000000;letter-spacing:0px;word-spacing:0px;text-transform:none;writing-mode:lr-tb;direction:ltr;text-orientation:mixed;dominant-baseline:auto;baseline-shift:baseline;text-anchor:start;white-space:normal;shape-padding:0;opacity:1;vector-effect:none;fill:#393939;fill-opacity:1;stroke:#08131b;stroke-width:0.69999993px;stroke-linecap:butt;stroke-linejoin:miter;stroke-miterlimit:4;stroke-dasharray:none;stroke-dashoffset:0;stroke-opacity:1"
     aria-label="PyDSA"
     transform="translate(1.2278411e-5,-381.26959)">
    <path
       inkscape:connector-curvature="0"
       id="path895"
       style="font-style:normal;font-variant:normal;font-weight:normal;font-stretch:normal;font-family:'Droid Serif';-inkscape-font-specification:'Droid Serif';fill:#393939;fill-opacity:1;stroke:#08131b;stroke-width:0.69999993px;stroke-opacity:1"
       d="m 413.47913,215.51692 v -8.17828 h 2.4725 q 3.32838,0 6.18127,-0.47549 2.94798,-0.47548 5.1352,-1.90192 2.18722,-1.52154 3.42347,-4.27934 1.23625,-2.75779 1.23625,-7.32242 V 97.882747 q 0,-4.279336 -1.33135,-6.846937 -1.23625,-2.662698 -3.42347,-4.089143 -2.18721,-1.426445 -5.1352,-1.80683 -2.85289,-0.475482 -6.08617,-0.475482 h -2.4725 V 76.48607 h 54.6804 q 12.26742,0 21.30158,2.85289 9.03415,2.757794 14.93012,8.083189 5.89598,5.230299 8.74887,12.742911 2.94798,7.51261 2.94798,17.02224 0,8.65377 -2.75779,16.64186 -2.6627,7.9881 -8.84396,14.16936 -6.18126,6.08616 -16.16638,9.79492 -9.98511,3.61366 -24.43976,3.61366 h -12.26743 v 32.90334 q 0,4.27933 1.23626,6.94203 1.33134,2.5676 3.51856,3.89895 2.18722,1.33135 5.04011,1.80683 2.94798,0.38039 6.18126,0.38039 h 6.46655 v 8.17828 z m 38.13363,-63.33416 h 10.3655 q 8.84396,0 15.12032,-1.80683 6.27636,-1.90193 10.27041,-5.99107 3.99404,-4.18424 5.80087,-10.65079 1.90193,-6.56165 1.90193,-15.786 0,-8.17828 -1.61664,-14.16935 -1.61663,-6.086166 -5.2303,-10.080212 -3.61366,-3.994047 -9.41453,-5.895974 -5.70578,-1.997023 -13.97917,-1.997023 h -13.21839 z" />
    <path
       inkscape:connector-curvature="0"
       id="path897"
       style="font-style:normal;font-variant:normal;font-weight:normal;font-stretch:normal;font-family:'Droid Serif';-inkscape-font-specification:'Droid Serif';fill:#393939;fill-opacity:1;stroke:#08131b;stroke-width:0.69999993px;stroke-opacity:1"
       d="m 633.62716,111.10114 v 8.17828 h -0.57058 q -2.85289,0 -4.94501,0.66568 -1.99702,0.57058 -3.70875,2.28231 -1.61664,1.71173 -3.04309,4.65972 -1.42644,2.94799 -3.13818,7.60771 l -29.57496,81.78285 q -3.42347,9.41454 -6.46655,16.54677 -3.04308,7.13222 -6.37146,12.17233 -3.32837,5.1352 -7.32241,8.46357 -3.89895,3.32837 -8.93906,5.3254 -5.04011,1.99702 -11.60175,2.75779 -6.56165,0.76077 -15.21542,0.76077 h -1.71173 v -9.22434 q 9.89002,0 17.02224,-2.94799 7.13223,-2.94799 12.26743,-8.08319 5.2303,-5.1352 8.65377,-12.17233 3.51856,-6.94203 5.89597,-15.12032 l -36.04151,-85.11123 q -1.33135,-3.04308 -2.5676,-4.945 -1.23626,-1.99703 -2.85289,-3.23328 -1.52155,-1.23625 -3.61367,-1.71173 -1.99702,-0.47549 -4.84991,-0.47549 h -0.57058 v -8.17828 h 46.7874 v 8.17828 h -0.57057 q -5.89598,0 -8.84396,2.28232 -2.85289,2.28231 -2.85289,7.13222 0,1.61664 0.28528,3.32837 0.38039,1.61664 1.23626,3.80386 l 14.26445,34.71016 q 1.33135,3.32837 2.75779,7.32242 1.52154,3.89895 2.7578,7.7979 1.33135,3.80385 2.3774,7.22732 1.04606,3.42347 1.42645,5.89598 h 0.57058 q 1.04606,-4.27934 2.85289,-10.36551 1.90193,-6.18126 4.37443,-13.21839 l 13.0282,-37.94344 q 0.85587,-2.37741 1.23625,-4.56462 0.47548,-2.18722 0.47548,-3.80386 0,-5.0401 -3.23327,-7.32241 -3.13818,-2.28232 -9.60473,-2.28232 h -0.57058 v -8.17828 z" />
    <path
       inkscape:connector-curvature="0"
       id="path899"
       style="font-style:normal;font-variant:normal;font-weight:normal;font-stretch:normal;font-family:'Droid Serif';-inkscape-font-specification:'Droid Serif';fill:#393939;fill-opacity:1;stroke:#08131b;stroke-width:0.69999993px;stroke-opacity:1"
       d="m 764.00426,145.8113 q 0,15.97619 -3.99405,28.90929 -3.99405,12.83801 -11.88704,21.96726 -7.893,9.03415 -19.78004,13.97916 -11.88705,4.84991 -27.76813,4.84991 h -59.62541 v -8.17828 h 2.4725 q 3.32838,0 6.18127,-0.47549 2.94798,-0.47548 5.1352,-1.90192 2.18721,-1.52154 3.42347,-4.27934 1.23625,-2.75779 1.23625,-7.32242 V 97.882747 q 0,-4.279336 -1.33135,-6.846937 -1.23625,-2.662698 -3.42347,-4.089143 -2.18721,-1.426445 -5.1352,-1.80683 -2.85289,-0.475482 -6.08617,-0.475482 h -2.4725 V 76.48607 H 700.575 q 15.02522,0 26.81716,4.65972 11.79195,4.564625 19.87514,13.408585 8.17828,8.843955 12.45762,21.777065 4.27934,12.9331 4.27934,29.47986 z m -67.99389,59.8156 q 11.60175,0 20.25552,-3.89895 8.74887,-3.99404 14.54974,-11.60175 5.80088,-7.60771 8.65377,-18.73398 2.94799,-11.12627 2.94799,-25.58092 0,-29.00438 -11.60176,-44.31489 Q 719.30897,86.185897 696.20056,86.185897 H 679.08322 V 205.6269 Z" />
    <path
       inkscape:connector-curvature="0"
       id="path901"
       style="font-style:normal;font-variant:normal;font-weight:normal;font-stretch:normal;font-family:'Droid Serif';-inkscape-font-specification:'Droid Serif';fill:#393939;fill-opacity:1;stroke:#08131b;stroke-width:0.69999993px;stroke-opacity:1"
       d="m 823.15418,217.41885 q -9.50963,0 -16.83205,-1.99702 -7.22732,-1.99703 -12.17233,-5.51559 -4.84992,-3.61366 -7.32242,-8.65377 -2.47251,-5.1352 -2.47251,-11.22137 0,-5.89597 3.61366,-9.50963 3.70876,-3.61366 10.4606,-3.61366 0.28529,6.08616 1.80683,11.69685 1.61664,5.61068 4.75482,9.89002 3.13818,4.27933 7.98809,6.84693 4.84991,2.5676 11.69685,2.5676 13.1233,0 20.44572,-6.27635 7.41751,-6.37146 7.41751,-18.2585 0,-5.3254 -1.52154,-9.41454 -1.52154,-4.08914 -5.04011,-7.51261 -3.51856,-3.51857 -9.31944,-6.65674 -5.70578,-3.23328 -14.26445,-6.75184 -9.03415,-3.70876 -15.78599,-7.893 -6.75184,-4.27934 -11.22137,-9.41454 -4.46953,-5.2303 -6.65675,-11.60175 -2.18721,-6.37146 -2.18721,-14.35955 0,-8.36848 3.13818,-14.930126 3.23327,-6.561648 8.93905,-11.031176 5.70578,-4.564624 13.50368,-6.942033 7.7979,-2.377409 17.02225,-2.377409 8.74886,0 15.5007,1.806831 6.75184,1.80683 11.41156,4.849913 4.65973,3.043083 7.03713,7.03713 2.47251,3.89895 2.47251,8.178285 0,6.276355 -4.18424,9.509635 -4.08914,3.13818 -11.12627,3.13818 0,-4.56463 -1.14116,-8.93906 -1.04606,-4.469526 -3.61366,-7.892994 -2.5676,-3.518565 -6.75184,-5.70578 -4.18424,-2.187216 -10.3655,-2.187216 -5.61069,0 -10.08021,1.616637 -4.37444,1.521542 -7.41752,4.469529 -3.04308,2.85289 -4.65972,6.942033 -1.61664,4.089141 -1.61664,9.129251 0,5.80087 1.52154,10.2704 1.52155,4.37443 5.04011,7.9881 3.61366,3.51856 9.41454,6.75184 5.80088,3.13817 14.26445,6.56164 8.55867,3.51857 15.21541,7.41752 6.75185,3.89895 11.41157,8.74886 4.65972,4.75482 7.13222,10.74589 2.47251,5.89597 2.47251,13.40858 0,9.22435 -3.42347,16.54677 -3.32837,7.22732 -9.60473,12.26742 -6.27636,5.04011 -15.12032,7.70281 -8.84396,2.5676 -19.78004,2.5676 z" />
    <path
       inkscape:connector-curvature="0"
       id="path903"
       style="font-style:normal;font-variant:normal;font-weight:normal;font-stretch:normal;font-family:'Droid Serif';-inkscape-font-specification:'Droid Serif';fill:#393939;fill-opacity:1;stroke:#08131b;stroke-width:0.69999993px;stroke-opacity:1"
       d="m 916.72899,169.01481 -7.41752,20.44571 q -0.85587,2.28232 -1.33135,4.56463 -0.47548,2.18721 -0.47548,3.80385 0,4.94501 3.13818,7.22732 3.23328,2.28232 9.79492,2.28232 h 4.46953 v 8.17828 H 877.3591 v -8.17828 h 3.70876 q 2.85289,0 4.84991,-0.57058 1.99702,-0.66568 3.61366,-2.37741 1.61664,-1.71173 3.04309,-4.65972 1.52154,-2.94799 3.32837,-7.60771 L 939.07663,76.48607 h 15.21541 l 44.02961,120.48707 q 1.14115,3.04308 2.28235,5.0401 1.2362,1.99702 2.8529,3.23328 1.6166,1.14115 3.7087,1.61663 2.0921,0.47549 4.945,0.47549 h 2.5676 v 8.17828 h -53.53922 v -8.17828 h 4.46953 q 11.69685,0 11.69685,-9.31944 0,-1.61664 -0.47549,-3.32838 -0.38038,-1.71173 -1.14115,-3.89895 l -7.7979,-21.77706 z m 35.56603,-43.83941 q -3.04308,-8.65377 -5.61069,-16.16638 -2.4725,-7.60771 -4.08914,-14.644838 -0.66567,3.518565 -1.61664,6.846938 -0.85586,3.23327 -1.90192,6.65674 -1.04606,3.42347 -2.37741,7.22732 -1.33135,3.70876 -3.04309,8.27339 l -13.21839,35.85132 h 43.93451 z" />
  </g>
  <g
     transform="translate(-158.8862,90.042949)"
     id="g1642">
    <circle
       r="162.99998"
       cy="73.59449"
       cx="322.52173"
       id="circle1144"
       style="opacity:1;fill:url(#linearGradient1172);fill-opacity:1;stroke:none;stroke-width:3.5;stroke-linecap:round;stroke-linejoin:bevel;stroke-miterlimit:4;stroke-dasharray:none;stroke-dashoffset:0;stroke-opacity:1;paint-order:normal" />
    <rect
       style="opacity:1;fill:url(#linearGradient1644);fill-opacity:1;stroke:none;stroke-width:21;stroke-linecap:round;stroke-linejoin:bevel;stroke-miterlimit:4;stroke-dasharray:none;stroke-dashoffset:0;stroke-opacity:0.96078431;paint-order:normal"
       id="rect1146"
       width="335.75"
       height="155.299"
       x="-1512.4973"
       y="753.14954"
       clip-path="url(#clipPath1223)"
       mask="none"
       transform="translate(1670.062,-622.2658)" />
    <g
       id="g1154"
       transform="matrix(0.52168007,0,0,0.52168007,750.8065,-155.81581)"
       style="stroke:#ffffff"
       clip-path="url(#clipPath4718-1)">
      <path
         style="opacity:1;fill:#387bb3;fill-opacity:1;stroke:#ffffff;stroke-width:3.3010385;stroke-linecap:round;stroke-linejoin:bevel;stroke-miterlimit:4;stroke-dasharray:none;stroke-dashoffset:0;stroke-opacity:1;paint-order:normal"
         id="path1148"
         sodipodi:type="arc"
         sodipodi:cx="-814.73328"
         sodipodi:cy="585.17767"
         sodipodi:rx="192.22243"
         sodipodi:ry="192.22243"
         sodipodi:start="3.3532903"
         sodipodi:end="6.078111"
         d="M -1002.6645,544.78791 A 192.22243,192.22243 0 0 1 -814.0967,392.9563 192.22243,192.22243 0 0 1 -626.53871,546.03352"
         sodipodi:open="true" />
      <path
         style="fill:none;stroke:#ffffff;stroke-width:7;stroke-linecap:butt;stroke-linejoin:miter;stroke-miterlimit:4;stroke-dasharray:none;stroke-opacity:1"
         d="m -1196.4959,548.58223 h 759.95446"
         id="path1150"
         inkscape:connector-curvature="0"
         sodipodi:nodetypes="cc"
         clip-path="url(#clipPath4712-1)"
         transform="matrix(1.2300614,0,0,1.2300614,195.66101,-127.0128)" />
      <path
         style="opacity:1;fill:#f6f9fc;fill-opacity:0.44743934;stroke:none;stroke-width:2.63348341;stroke-linecap:round;stroke-linejoin:bevel;stroke-miterlimit:4;stroke-dasharray:none;stroke-dashoffset:0;stroke-opacity:1;paint-order:normal"
         d="m -915.34926,464.16391 c 23.513,-24.37675 55.93828,-38.12838 89.80693,-38.0873 l 23.70963,-20.50753 c -54.00041,-4.09821 -106.50855,17.75594 -141.63961,58.453 -2.17285,2.5171 -2.16134,2.56484 -4.19748,5.22442 z"
         id="path1152"
         inkscape:connector-curvature="0"
         sodipodi:nodetypes="cccscc" />
    </g>
    <g
       id="g1160"
       transform="translate(1669.8852,-1045.8877)">
      <path
         inkscape:connector-curvature="0"
         id="path1156"
         d="m -1002.6645,544.78784 46.06879,-156.07105"
         style="fill:none;stroke:#ffffff;stroke-width:3.3010385;stroke-linecap:butt;stroke-linejoin:miter;stroke-miterlimit:4;stroke-dasharray:9.90311508, 3.30103837;stroke-dashoffset:0;stroke-opacity:1"
         transform="matrix(0.52168007,0,0,0.52168007,-919.25552,890.07194)" />
      <path
         sodipodi:open="true"
         d="m -1430.766,1144.5283 a 32.602291,32.602291 0 0 1 20.9754,30.5665"
         sodipodi:end="0.0033068806"
         sodipodi:start="5.0770375"
         sodipodi:ry="32.602291"
         sodipodi:rx="32.602291"
         sodipodi:cy="1174.9869"
         sodipodi:cx="-1442.3927"
         sodipodi:type="arc"
         id="path1158"
         style="opacity:1;fill:none;fill-opacity:1;stroke:#ffffff;stroke-width:1.39999998;stroke-linecap:butt;stroke-linejoin:bevel;stroke-miterlimit:4;stroke-dasharray:4.19999998, 4.19999998;stroke-dashoffset:0;stroke-opacity:1;paint-order:normal" />
    </g>
    <g
       id="use1162"
       transform="matrix(-1,0,0,1,-1018.3078,-1045.8877)">
      <path
         inkscape:connector-curvature="0"
         id="path1601"
         d="m -1002.6645,544.78784 46.06879,-156.07105"
         style="fill:none;stroke:#ffffff;stroke-width:3.3010385;stroke-linecap:butt;stroke-linejoin:miter;stroke-miterlimit:4;stroke-dasharray:9.90311508, 3.30103837;stroke-dashoffset:0;stroke-opacity:1"
         transform="matrix(0.52168007,0,0,0.52168007,-919.25552,890.07194)" />
      <path
         sodipodi:open="true"
         d="m -1430.766,1144.5283 a 32.602291,32.602291 0 0 1 20.9754,30.5665"
         sodipodi:end="0.0033068806"
         sodipodi:start="5.0770375"
         sodipodi:ry="32.602291"
         sodipodi:rx="32.602291"
         sodipodi:cy="1174.9869"
         sodipodi:cx="-1442.3927"
         sodipodi:type="arc"
         id="path1603"
         style="opacity:1;fill:none;fill-opacity:1;stroke:#ffffff;stroke-width:1.39999998;stroke-linecap:butt;stroke-linejoin:bevel;stroke-miterlimit:4;stroke-dasharray:4.19999998, 4.19999998;stroke-dashoffset:0;stroke-opacity:1;paint-order:normal" />
    </g>
    <ellipse
       ry="161.15466"
       rx="161.17577"
       style="opacity:1;fill:none;fill-opacity:1;stroke:#212121;stroke-width:4.9000001;stroke-linecap:round;stroke-linejoin:bevel;stroke-miterlimit:4;stroke-dasharray:none;stroke-dashoffset:0;stroke-opacity:1;paint-order:normal"
       id="ellipse1164"
       cx="322.51196"
       cy="73.561714" />
    <g
       id="g1140"
       transform="matrix(0.20686469,0,0,0.20686469,382.55149,-32.567308)"
       style="stroke-width:4.83407784">
      <path
         id="path1136"
         d="m -275.82849,-173.04726 c -120.07868,0 -112.58014,52.07332 -112.58014,52.07332 l 0.13398,53.947419 h 114.58802 v 16.197603 h -160.102 c 0,0 -76.8383,-8.71416 -76.8383,112.446257 0,121.160381 67.0662,116.863751 67.0662,116.863751 h 40.02561 v -56.2231 c 0,0 -2.15755,-67.066171 65.99518,-67.066171 68.15285,0 113.65116,0 113.65116,0 0,0 63.85336,1.03219 63.85336,-61.7115636 0,-62.7437444 0,-103.7450554 0,-103.7450554 0,0 9.69477,-62.78246 -115.79307,-62.78246 z m -63.18402,36.27728 c 11.4006,0 20.61514,9.21448 20.61514,20.61516 0,11.40067 -9.21454,20.615146 -20.61514,20.615146 -11.40059,0 -20.61514,-9.214476 -20.61514,-20.615146 0,-11.40068 9.21455,-20.61516 20.61514,-20.61516 z"
         style="color:#000000;display:inline;overflow:visible;visibility:visible;opacity:1;fill:url(#linearGradient1168);fill-opacity:1;fill-rule:nonzero;stroke:none;stroke-width:4.83407784;stroke-linecap:butt;stroke-linejoin:miter;stroke-miterlimit:4;stroke-dasharray:none;stroke-dashoffset:0;stroke-opacity:1;marker:none;marker-start:none;marker-mid:none;marker-end:none"
         inkscape:connector-curvature="0" />
      <path
         style="color:#000000;display:inline;overflow:visible;visibility:visible;opacity:1;fill:url(#linearGradient1170);fill-opacity:1;fill-rule:nonzero;stroke:none;stroke-width:4.83407784;stroke-linecap:butt;stroke-linejoin:miter;stroke-miterlimit:4;stroke-dasharray:none;stroke-dashoffset:0;stroke-opacity:1;marker:none;marker-start:none;marker-mid:none;marker-end:none"
         d="m -272.41815,297.49679 c 120.07861,0 112.57993,-52.07334 112.57993,-52.07334 l -0.13426,-53.94742 h -114.58783 v -16.19762 h 160.10199 c 0,0 76.838186,8.71412 76.838186,-112.446278 3e-5,-121.160356 -67.066056,-116.863761 -67.066056,-116.863761 h -40.02559 V 2.1914824 c 0,0 2.15752,67.0661596 -65.99524,67.0661596 -68.1527,0 -113.65104,0 -113.65104,0 0,0 -63.85331,-1.03219 -63.85331,61.711598 0,62.74372 0,103.74504 0,103.74504 0,0 -9.69486,62.78251 115.79293,62.78251 z m 63.1839,-36.27733 c -11.40057,0 -20.61508,-9.21444 -20.61508,-20.61513 0,-11.40065 9.21451,-20.61514 20.61508,-20.61514 11.40079,0 20.61531,9.21449 20.61531,20.61514 0,11.40069 -9.21452,20.61513 -20.61531,20.61513 z"
         id="path1138"
         inkscape:connector-curvature="0" />
    </g>
  </g>
</svg>
